<svg id="Ebene_1" data-name="Ebene 1" xmlns="http://www.w3.org/2000/svg" xmlns:xlink="http://www.w3.org/1999/xlink" viewBox="0 0 407.03 428.63"><defs><style>.cls-1{fill:#878787;}.cls-1,.cls-10,.cls-11,.cls-12,.cls-2,.cls-3,.cls-4,.cls-5,.cls-6,.cls-7,.cls-8,.cls-9{fill-rule:evenodd;}.cls-2{fill:url(#Unbenannter_Verlauf_9);}.cls-3{fill:url(#Unbenannter_Verlauf_2);}.cls-4{fill:url(#Unbenannter_Verlauf_3);}.cls-5{fill:#004c83;}.cls-6{fill:url(#Unbenannter_Verlauf_4);}.cls-7{fill:#ffec45;}.cls-8{fill:url(#Unbenannter_Verlauf_5);}.cls-9{fill:#0582c1;}.cls-10{fill:url(#Unbenannter_Verlauf_6);}.cls-11{fill:url(#Unbenannter_Verlauf_7);}.cls-12{fill:url(#Unbenannter_Verlauf_8);}.cls-13{font-size:47px;fill:#fff;font-family:FranklinGothic-Medium, Franklin Gothic Medium;font-weight:500;}.cls-14{letter-spacing:-0.01em;}.cls-15{letter-spacing:-0.02em;}.cls-16{letter-spacing:-0.02em;}.cls-17{letter-spacing:0em;}.cls-18{letter-spacing:-0.02em;}.cls-19{letter-spacing:0em;}.cls-20{letter-spacing:0em;}.cls-21,.cls-22{fill:none;}.cls-22{stroke:#1d1d1b;stroke-miterlimit:10;stroke-width:30px;}</style><linearGradient id="Unbenannter_Verlauf_9" x1="-63.76" y1="608.23" x2="-77.78" y2="609.69" gradientTransform="matrix(12.37, 0, 0, -8.17, 1066.64, 5282.43)" gradientUnits="userSpaceOnUse"><stop offset="0" stop-color="#0a90b6"/><stop offset="1" stop-color="#00a4b7"/></linearGradient><linearGradient id="Unbenannter_Verlauf_2" x1="-83.66" y1="626.71" x2="-88.53" y2="627.78" gradientTransform="matrix(44.13, 0, 0, -13.58, 3992.62, 8869.83)" gradientUnits="userSpaceOnUse"><stop offset="0" stop-color="#22bced"/><stop offset="1" stop-color="#21a1dc"/></linearGradient><radialGradient id="Unbenannter_Verlauf_3" cx="-89.36" cy="651.59" r="5.59" gradientTransform="matrix(48.86, 0, 0, -44.13, 4427.04, 29039.24)" gradientUnits="userSpaceOnUse"><stop offset="0.12" stop-color="#0087ae"/><stop offset="1" stop-color="#02663a"/></radialGradient><linearGradient id="Unbenannter_Verlauf_4" x1="-82.04" y1="649.22" x2="-85.83" y2="645.61" gradientTransform="matrix(28.67, 0, 0, -19.77, 2572.75, 12912.04)" gradientUnits="userSpaceOnUse"><stop offset="0" stop-color="#ed6b3e"/><stop offset="1" stop-color="#ed6d73"/></linearGradient><linearGradient id="Unbenannter_Verlauf_5" x1="-79.02" y1="653.54" x2="-75.55" y2="649.35" gradientTransform="matrix(23.27, 0, 0, -31.82, 2104.46, 20897.76)" gradientUnits="userSpaceOnUse"><stop offset="0" stop-color="#49ae47"/><stop offset="1" stop-color="#017c4f"/></linearGradient><linearGradient id="Unbenannter_Verlauf_6" x1="-83.02" y1="653.24" x2="-87.56" y2="648.67" gradientTransform="matrix(27.16, 0, 0, -28.36, 2419.95, 18597.36)" gradientUnits="userSpaceOnUse"><stop offset="0" stop-color="#e63033"/><stop offset="1" stop-color="#e83c61"/></linearGradient><linearGradient id="Unbenannter_Verlauf_7" x1="-81.83" y1="637.26" x2="-86.62" y2="635.38" gradientTransform="matrix(37.31, 0, 0, -17.13, 3375.87, 11207.2)" gradientUnits="userSpaceOnUse"><stop offset="0" stop-color="#046cb4"/><stop offset="1" stop-color="#0d80c4"/></linearGradient><linearGradient id="Unbenannter_Verlauf_8" x1="-79.63" y1="649.89" x2="-82.62" y2="646.24" gradientTransform="matrix(14.74, 0, 0, -25.77, 1275.7, 16901.59)" gradientUnits="userSpaceOnUse"><stop offset="0" stop-color="#162c48"/><stop offset="1" stop-color="#0d4479"/></linearGradient></defs><g id="breadcrumb_logo_big" data-name="breadcrumb logo big"><g id="logo"><g id="Ebene_1-2" data-name="Ebene 1"><g id="Group"><path id="Shape" class="cls-1" d="M351.84,179.57a16.28,16.28,0,0,0-1.08-1.62A483.72,483.72,0,0,0,275.84,100a483.15,483.15,0,0,0-47.77-35c-.23-.15-.47-.24-.71-.37a43.33,43.33,0,0,0-22.54-6.34,42.12,42.12,0,0,0-7.92.81,43.46,43.46,0,0,0-11.32,3.71c-5.49,2.67-9.62,4.9-14,7.35A325.06,325.06,0,0,0,41.76,203.63c-.07.13-.11.27-.18.4-.65,1.21-1.22,2.46-1.77,3.74a43.31,43.31,0,0,0-3.42,16.88c0,.34,0,.67,0,1A43.56,43.56,0,0,0,38.5,238c.07.26.11.51.2.77a220.64,220.64,0,0,0,49.43,80.49c.36.37.68.76,1,1.12q2.19,2.26,4.46,4.45,4.19,4,8.58,7.89,7.11,6.19,14.74,11.78a220,220,0,0,0,31.48,19.2A217.82,217.82,0,0,0,191.75,380q6.24,1.6,12.61,2.86c.31.06.69.13,1,.17a41.81,41.81,0,0,0,7.12.55,43.36,43.36,0,0,0,17.3-3.59c.06,0,.13,0,.18-.06a220.63,220.63,0,0,0,72-50.9,3.2,3.2,0,0,1,.25-.27,222,222,0,0,0,21.9-27.52,219.28,219.28,0,0,0,32.17-74.35c1-4.37,1.89-8.77,2.61-13.22.09-.43.14-.87.22-1.3s.11-.62.15-.93c0-.08,0-.15,0-.22a42.51,42.51,0,0,0,.55-6.53,43.27,43.27,0,0,0-8-25.08Z"/><g id="Shape-2" data-name="Shape"><path class="cls-2" d="M142.66,318.23h0a239.89,239.89,0,0,1-60.3-37.86,263.9,263.9,0,0,0,5,39.48,376.09,376.09,0,0,0,55.3-1.61Z"/><path class="cls-3" d="M88.4,321c1.48,1.51,3,3,4.49,4.47q4.22,4.08,8.63,7.93,7.16,6.24,14.82,11.85a221,221,0,0,0,75.22,35.63q6.27,1.62,12.67,2.87c.32.07.7.14,1,.18a44.62,44.62,0,0,0,24.57-3.06l.18-.06a221.87,221.87,0,0,0,72.38-51.19l.25-.28a239,239,0,0,1-159.94-11.08h0a377.74,377.74,0,0,1-55.3,1.61h0c.36.37.7.76,1.05,1.13Z"/></g><path id="Shape-3" data-name="Shape" class="cls-4" d="M247.05,103q-10,1.65-20.09,3.83a389,389,0,0,0-119.74,47.85A264.63,264.63,0,0,0,82.34,280.36a240,240,0,0,0,60.31,37.87,391.28,391.28,0,0,0,177.69-63.62A304.18,304.18,0,0,0,247.05,103Z"/><path id="Shape-4" data-name="Shape" class="cls-5" d="M35.36,225.68a44.06,44.06,0,0,0,2.09,12.45c.08.26.11.51.2.77a221.76,221.76,0,0,0,49.72,80.94,302.2,302.2,0,0,1-5.15-42.39c-18.25-15.67-34-31.19-46.86-51.77Z"/><path id="Shape-5" data-name="Shape" class="cls-6" d="M107.23,154.67A389.1,389.1,0,0,1,227,106.82q10-2.19,20.1-3.83a301.22,301.22,0,0,0-50.34-44.75A44.32,44.32,0,0,0,185.34,62c-5.52,2.68-9.67,4.92-14.1,7.39a262,262,0,0,0-64,85.3Z"/><path id="Shape-6" data-name="Shape" class="cls-7" d="M247.05,103c9.71-1.6,19.39-2.77,29.05-3.62a485.71,485.71,0,0,0-48-35.19c-.24-.15-.48-.24-.72-.37a42.42,42.42,0,0,0-30.63-5.57A300.75,300.75,0,0,1,247.05,103Z"/><path id="Shape-7" data-name="Shape" class="cls-8" d="M320.34,254.61A387.34,387.34,0,0,0,357,226.89c1-4.39,1.89-8.82,2.61-13.3.09-.43.15-.87.22-1.3s.12-.63.16-.94c0-.07,0-.14,0-.21a44.45,44.45,0,0,0,.55-6.57,43.54,43.54,0,0,0-8-25.22,16.53,16.53,0,0,0-1.09-1.63A485.72,485.72,0,0,0,276.1,99.38c-9.66.85-19.34,2-29.05,3.62a304.11,304.11,0,0,1,73.29,151.61Z"/><path id="Shape-8" data-name="Shape" class="cls-9" d="M324.65,301.66A220.78,220.78,0,0,0,357,226.89a387.34,387.34,0,0,1-36.66,27.72,302.83,302.83,0,0,1,4.31,47.05Z"/><path id="Shape-9" data-name="Shape" class="cls-10" d="M171.24,69.38A326.83,326.83,0,0,0,40.72,203.54c-.07.13-.12.27-.18.4-.65,1.21-1.24,2.47-1.78,3.75a387.6,387.6,0,0,1,68.46-53,262,262,0,0,1,64-85.29Z"/><path id="Shape-10" data-name="Shape" class="cls-11" d="M142.66,318.23a239,239,0,0,0,160,11.09,221.11,221.11,0,0,0,22-27.66,302.61,302.61,0,0,0-4.31-47.05,391.2,391.2,0,0,1-177.68,63.62Z"/><path id="Shape-11" data-name="Shape" class="cls-12" d="M35.36,225.68a240.23,240.23,0,0,0,47,54.68A263.23,263.23,0,0,1,96.51,181a268.16,268.16,0,0,1,10.72-26.34,387.13,387.13,0,0,0-68.46,53,43.51,43.51,0,0,0-3.44,17c0,.34,0,.67,0,1Z"/></g></g></g></g><text class="cls-13" transform="translate(97.73 214.06)">Mus<tspan class="cls-14" x="84.34" y="0">t</tspan><tspan x="98.82" y="0">er </tspan><tspan class="cls-15" x="150.8" y="0">A</tspan><tspan x="178.06" y="0">G</tspan><tspan class="cls-16" x="0" y="56.4">F</tspan><tspan class="cls-17" x="22.93" y="56.4">o</tspan><tspan class="cls-18" x="47.55" y="56.4">t</tspan><tspan class="cls-19" x="61.85" y="56.4">o </tspan><tspan class="cls-20" x="98.45" y="56.4">S</tspan><tspan x="125.12" y="56.4">tand</tspan></text><path class="cls-21" d="M10.93,0H398.19V387.26H10.93Z"/><circle class="cls-22" cx="203.51" cy="225.12" r="188.51"/></svg>